<?xml version="1.0" encoding="UTF-8"?>
<!DOCTYPE svg PUBLIC "-//W3C//DTD SVG 1.1//EN" "http://www.w3.org/Graphics/SVG/1.1/DTD/svg11.dtd">
<svg xmlns="http://www.w3.org/2000/svg" version="1.1" width="90px" height="95px" style="shape-rendering:geometricPrecision; text-rendering:geometricPrecision; image-rendering:optimizeQuality; fill-rule:evenodd; clip-rule:evenodd" xmlns:xlink="http://www.w3.org/1999/xlink">
<g><path style="opacity:1" fill="#171717" d="M -0.5,-0.5 C 29.5,-0.5 59.5,-0.5 89.5,-0.5C 89.5,31.1667 89.5,62.8333 89.5,94.5C 59.5,94.5 29.5,94.5 -0.5,94.5C -0.5,85.8333 -0.5,77.1667 -0.5,68.5C 1.16667,68.5 2.83333,68.5 4.5,68.5C 4.5,65.8333 4.5,63.1667 4.5,60.5C 2.83333,60.5 1.16667,60.5 -0.5,60.5C -0.5,59.1667 -0.5,57.8333 -0.5,56.5C 1.16667,56.5 2.83333,56.5 4.5,56.5C 4.5,53.8333 4.5,51.1667 4.5,48.5C 2.83333,48.5 1.16667,48.5 -0.5,48.5C -0.5,47.1667 -0.5,45.8333 -0.5,44.5C 1.16667,44.5 2.83333,44.5 4.5,44.5C 4.5,41.8333 4.5,39.1667 4.5,36.5C 2.83333,36.5 1.16667,36.5 -0.5,36.5C -0.5,35.1667 -0.5,33.8333 -0.5,32.5C 1.16667,32.5 2.83333,32.5 4.5,32.5C 4.5,29.8333 4.5,27.1667 4.5,24.5C 2.83333,24.5 1.16667,24.5 -0.5,24.5C -0.5,16.1667 -0.5,7.83333 -0.5,-0.5 Z"/></g>
<g><path style="opacity:1" fill="#909090" d="M 50.5,6.5 C 52.337,6.63945 52.6704,7.30612 51.5,8.5C 50.7025,8.04311 50.3691,7.37644 50.5,6.5 Z"/></g>
<g><path style="opacity:1" fill="#9f9f9f" d="M 50.5,12.5 C 51.7479,13.3339 52.4146,14.6672 52.5,16.5C 52.1667,17.8333 51.8333,19.1667 51.5,20.5C 50.52,17.9135 50.1866,15.2469 50.5,12.5 Z"/></g>
<g><path style="opacity:1" fill="#929292" d="M 53.5,12.5 C 55.1667,13.1667 56.8333,13.8333 58.5,14.5C 58.5,16.5 58.5,18.5 58.5,20.5C 56.8333,20.5 55.1667,20.5 53.5,20.5C 53.5,17.8333 53.5,15.1667 53.5,12.5 Z"/></g>
<g><path style="opacity:1" fill="#8c8c8c" d="M 59.5,16.5 C 61.6056,16.679 63.2723,17.679 64.5,19.5C 62.9547,20.4519 61.288,20.7852 59.5,20.5C 59.5,19.1667 59.5,17.8333 59.5,16.5 Z"/></g>
<g><path style="opacity:1" fill="#8b8b8b" d="M -0.5,24.5 C 1.16667,24.5 2.83333,24.5 4.5,24.5C 4.5,27.1667 4.5,29.8333 4.5,32.5C 2.83333,32.5 1.16667,32.5 -0.5,32.5C -0.5,29.8333 -0.5,27.1667 -0.5,24.5 Z"/></g>
<g><path style="opacity:1" fill="#8b8b8b" d="M 5.5,24.5 C 7.16667,24.5 8.83333,24.5 10.5,24.5C 10.5,27.1667 10.5,29.8333 10.5,32.5C 8.83333,32.5 7.16667,32.5 5.5,32.5C 5.5,29.8333 5.5,27.1667 5.5,24.5 Z"/></g>
<g><path style="opacity:1" fill="#8b8b8b" d="M 11.5,24.5 C 13.1667,24.5 14.8333,24.5 16.5,24.5C 16.5,27.1667 16.5,29.8333 16.5,32.5C 14.8333,32.5 13.1667,32.5 11.5,32.5C 11.5,29.8333 11.5,27.1667 11.5,24.5 Z"/></g>
<g><path style="opacity:1" fill="#8b8b8b" d="M 17.5,24.5 C 19.1667,24.5 20.8333,24.5 22.5,24.5C 22.5,27.1667 22.5,29.8333 22.5,32.5C 20.8333,32.5 19.1667,32.5 17.5,32.5C 17.5,29.8333 17.5,27.1667 17.5,24.5 Z"/></g>
<g><path style="opacity:1" fill="#939393" d="M 23.5,24.5 C 25.1667,24.5 26.8333,24.5 28.5,24.5C 28.5,27.1667 28.5,29.8333 28.5,32.5C 26.8333,32.5 25.1667,32.5 23.5,32.5C 23.5,29.8333 23.5,27.1667 23.5,24.5 Z"/></g>
<g><path style="opacity:1" fill="#939393" d="M 29.5,24.5 C 31.1667,24.5 32.8333,24.5 34.5,24.5C 34.5,27.1667 34.5,29.8333 34.5,32.5C 32.8333,32.5 31.1667,32.5 29.5,32.5C 29.5,29.8333 29.5,27.1667 29.5,24.5 Z"/></g>
<g><path style="opacity:1" fill="#939393" d="M 35.5,24.5 C 37.1667,24.5 38.8333,24.5 40.5,24.5C 40.5,27.1667 40.5,29.8333 40.5,32.5C 38.8333,32.5 37.1667,32.5 35.5,32.5C 35.5,29.8333 35.5,27.1667 35.5,24.5 Z"/></g>
<g><path style="opacity:1" fill="#939393" d="M 41.5,24.5 C 43.1667,24.5 44.8333,24.5 46.5,24.5C 46.5,27.1667 46.5,29.8333 46.5,32.5C 44.8333,32.5 43.1667,32.5 41.5,32.5C 41.5,29.8333 41.5,27.1667 41.5,24.5 Z"/></g>
<g><path style="opacity:1" fill="#939393" d="M 47.5,24.5 C 49.1667,24.5 50.8333,24.5 52.5,24.5C 52.5,27.1667 52.5,29.8333 52.5,32.5C 50.8333,32.5 49.1667,32.5 47.5,32.5C 47.5,29.8333 47.5,27.1667 47.5,24.5 Z"/></g>
<g><path style="opacity:1" fill="#939393" d="M 53.5,24.5 C 55.1667,24.5 56.8333,24.5 58.5,24.5C 58.5,27.1667 58.5,29.8333 58.5,32.5C 56.8333,32.5 55.1667,32.5 53.5,32.5C 53.5,29.8333 53.5,27.1667 53.5,24.5 Z"/></g>
<g><path style="opacity:1" fill="#939393" d="M 59.5,24.5 C 61.1667,24.5 62.8333,24.5 64.5,24.5C 64.5,27.1667 64.5,29.8333 64.5,32.5C 62.8333,32.5 61.1667,32.5 59.5,32.5C 59.5,29.8333 59.5,27.1667 59.5,24.5 Z"/></g>
<g><path style="opacity:1" fill="#929292" d="M 65.5,24.5 C 67.1667,25.1667 68.8333,25.8333 70.5,26.5C 70.5,28.5 70.5,30.5 70.5,32.5C 68.8333,32.5 67.1667,32.5 65.5,32.5C 65.5,29.8333 65.5,27.1667 65.5,24.5 Z"/></g>
<g><path style="opacity:1" fill="#969696" d="M 72.5,28.5 C 74.0783,29.0656 75.4116,30.0656 76.5,31.5C 75.3112,32.4287 73.9778,32.762 72.5,32.5C 72.5,31.1667 72.5,29.8333 72.5,28.5 Z"/></g>
<g><path style="opacity:1" fill="#a5a5a5" d="M 72.5,36.5 C 73.8333,36.5 75.1667,36.5 76.5,36.5C 76.5,39.1667 76.5,41.8333 76.5,44.5C 75.1667,44.5 73.8333,44.5 72.5,44.5C 72.5,41.8333 72.5,39.1667 72.5,36.5 Z"/></g>
<g><path style="opacity:1" fill="#8b8b8b" d="M -0.5,36.5 C 1.16667,36.5 2.83333,36.5 4.5,36.5C 4.5,39.1667 4.5,41.8333 4.5,44.5C 2.83333,44.5 1.16667,44.5 -0.5,44.5C -0.5,41.8333 -0.5,39.1667 -0.5,36.5 Z"/></g>
<g><path style="opacity:1" fill="#8b8b8b" d="M 5.5,36.5 C 7.16667,36.5 8.83333,36.5 10.5,36.5C 10.5,39.1667 10.5,41.8333 10.5,44.5C 8.83333,44.5 7.16667,44.5 5.5,44.5C 5.5,41.8333 5.5,39.1667 5.5,36.5 Z"/></g>
<g><path style="opacity:1" fill="#8b8b8b" d="M 11.5,36.5 C 13.1667,36.5 14.8333,36.5 16.5,36.5C 16.5,39.1667 16.5,41.8333 16.5,44.5C 14.8333,44.5 13.1667,44.5 11.5,44.5C 11.5,41.8333 11.5,39.1667 11.5,36.5 Z"/></g>
<g><path style="opacity:1" fill="#8b8b8b" d="M 17.5,36.5 C 19.1667,36.5 20.8333,36.5 22.5,36.5C 22.5,39.1667 22.5,41.8333 22.5,44.5C 20.8333,44.5 19.1667,44.5 17.5,44.5C 17.5,41.8333 17.5,39.1667 17.5,36.5 Z"/></g>
<g><path style="opacity:1" fill="#939393" d="M 23.5,36.5 C 25.1667,36.5 26.8333,36.5 28.5,36.5C 28.5,39.1667 28.5,41.8333 28.5,44.5C 26.8333,44.5 25.1667,44.5 23.5,44.5C 23.5,41.8333 23.5,39.1667 23.5,36.5 Z"/></g>
<g><path style="opacity:1" fill="#939393" d="M 29.5,36.5 C 31.1667,36.5 32.8333,36.5 34.5,36.5C 34.5,39.1667 34.5,41.8333 34.5,44.5C 32.8333,44.5 31.1667,44.5 29.5,44.5C 29.5,41.8333 29.5,39.1667 29.5,36.5 Z"/></g>
<g><path style="opacity:1" fill="#939393" d="M 35.5,36.5 C 37.1667,36.5 38.8333,36.5 40.5,36.5C 40.5,39.1667 40.5,41.8333 40.5,44.5C 38.8333,44.5 37.1667,44.5 35.5,44.5C 35.5,41.8333 35.5,39.1667 35.5,36.5 Z"/></g>
<g><path style="opacity:1" fill="#939393" d="M 41.5,36.5 C 43.1667,36.5 44.8333,36.5 46.5,36.5C 46.5,39.1667 46.5,41.8333 46.5,44.5C 44.8333,44.5 43.1667,44.5 41.5,44.5C 41.5,41.8333 41.5,39.1667 41.5,36.5 Z"/></g>
<g><path style="opacity:1" fill="#939393" d="M 47.5,36.5 C 49.1667,36.5 50.8333,36.5 52.5,36.5C 52.5,39.1667 52.5,41.8333 52.5,44.5C 50.8333,44.5 49.1667,44.5 47.5,44.5C 47.5,41.8333 47.5,39.1667 47.5,36.5 Z"/></g>
<g><path style="opacity:1" fill="#939393" d="M 53.5,36.5 C 55.1667,36.5 56.8333,36.5 58.5,36.5C 58.5,39.1667 58.5,41.8333 58.5,44.5C 56.8333,44.5 55.1667,44.5 53.5,44.5C 53.5,41.8333 53.5,39.1667 53.5,36.5 Z"/></g>
<g><path style="opacity:1" fill="#939393" d="M 59.5,36.5 C 61.1667,36.5 62.8333,36.5 64.5,36.5C 64.5,39.1667 64.5,41.8333 64.5,44.5C 62.8333,44.5 61.1667,44.5 59.5,44.5C 59.5,41.8333 59.5,39.1667 59.5,36.5 Z"/></g>
<g><path style="opacity:1" fill="#939393" d="M 65.5,36.5 C 67.1667,36.5 68.8333,36.5 70.5,36.5C 70.5,39.1667 70.5,41.8333 70.5,44.5C 68.8333,44.5 67.1667,44.5 65.5,44.5C 65.5,41.8333 65.5,39.1667 65.5,36.5 Z"/></g>
<g><path style="opacity:1" fill="#979797" d="M 78.5,36.5 C 81.7084,38.0739 83.0418,40.7406 82.5,44.5C 81.1667,44.5 79.8333,44.5 78.5,44.5C 78.5,41.8333 78.5,39.1667 78.5,36.5 Z"/></g>
<g><path style="opacity:1" fill="#989898" d="M 84.5,40.5 C 85.5862,40.62 86.2528,41.2867 86.5,42.5C 86.1667,43.1667 85.8333,43.8333 85.5,44.5C 84.5713,43.3112 84.238,41.9778 84.5,40.5 Z"/></g>
<g><path style="opacity:1" fill="#a5a5a5" d="M 72.5,48.5 C 73.8333,48.5 75.1667,48.5 76.5,48.5C 76.5,51.1667 76.5,53.8333 76.5,56.5C 75.1667,56.5 73.8333,56.5 72.5,56.5C 72.5,53.8333 72.5,51.1667 72.5,48.5 Z"/></g>
<g><path style="opacity:1" fill="#a5a5a5" d="M 78.5,48.5 C 79.8333,48.5 81.1667,48.5 82.5,48.5C 82.5,51.1667 82.5,53.8333 82.5,56.5C 81.1667,56.5 79.8333,56.5 78.5,56.5C 78.5,53.8333 78.5,51.1667 78.5,48.5 Z"/></g>
<g><path style="opacity:1" fill="#a0a0a0" d="M 84.5,48.5 C 85.9778,48.238 87.3112,48.5713 88.5,49.5C 87.2485,51.0009 86.2485,52.6675 85.5,54.5C 84.5344,52.604 84.2011,50.604 84.5,48.5 Z"/></g>
<g><path style="opacity:1" fill="#8b8b8b" d="M -0.5,48.5 C 1.16667,48.5 2.83333,48.5 4.5,48.5C 4.5,51.1667 4.5,53.8333 4.5,56.5C 2.83333,56.5 1.16667,56.5 -0.5,56.5C -0.5,53.8333 -0.5,51.1667 -0.5,48.5 Z"/></g>
<g><path style="opacity:1" fill="#8b8b8b" d="M 5.5,48.5 C 7.16667,48.5 8.83333,48.5 10.5,48.5C 10.5,51.1667 10.5,53.8333 10.5,56.5C 8.83333,56.5 7.16667,56.5 5.5,56.5C 5.5,53.8333 5.5,51.1667 5.5,48.5 Z"/></g>
<g><path style="opacity:1" fill="#8b8b8b" d="M 11.5,48.5 C 13.1667,48.5 14.8333,48.5 16.5,48.5C 16.5,51.1667 16.5,53.8333 16.5,56.5C 14.8333,56.5 13.1667,56.5 11.5,56.5C 11.5,53.8333 11.5,51.1667 11.5,48.5 Z"/></g>
<g><path style="opacity:1" fill="#8b8b8b" d="M 17.5,48.5 C 19.1667,48.5 20.8333,48.5 22.5,48.5C 22.5,51.1667 22.5,53.8333 22.5,56.5C 20.8333,56.5 19.1667,56.5 17.5,56.5C 17.5,53.8333 17.5,51.1667 17.5,48.5 Z"/></g>
<g><path style="opacity:1" fill="#939393" d="M 23.5,48.5 C 25.1667,48.5 26.8333,48.5 28.5,48.5C 28.5,51.1667 28.5,53.8333 28.5,56.5C 26.8333,56.5 25.1667,56.5 23.5,56.5C 23.5,53.8333 23.5,51.1667 23.5,48.5 Z"/></g>
<g><path style="opacity:1" fill="#939393" d="M 29.5,48.5 C 31.1667,48.5 32.8333,48.5 34.5,48.5C 34.5,51.1667 34.5,53.8333 34.5,56.5C 32.8333,56.5 31.1667,56.5 29.5,56.5C 29.5,53.8333 29.5,51.1667 29.5,48.5 Z"/></g>
<g><path style="opacity:1" fill="#939393" d="M 35.5,48.5 C 37.1667,48.5 38.8333,48.5 40.5,48.5C 40.5,51.1667 40.5,53.8333 40.5,56.5C 38.8333,56.5 37.1667,56.5 35.5,56.5C 35.5,53.8333 35.5,51.1667 35.5,48.5 Z"/></g>
<g><path style="opacity:1" fill="#939393" d="M 41.5,48.5 C 43.1667,48.5 44.8333,48.5 46.5,48.5C 46.5,51.1667 46.5,53.8333 46.5,56.5C 44.8333,56.5 43.1667,56.5 41.5,56.5C 41.5,53.8333 41.5,51.1667 41.5,48.5 Z"/></g>
<g><path style="opacity:1" fill="#939393" d="M 47.5,48.5 C 49.1667,48.5 50.8333,48.5 52.5,48.5C 52.5,51.1667 52.5,53.8333 52.5,56.5C 50.8333,56.5 49.1667,56.5 47.5,56.5C 47.5,53.8333 47.5,51.1667 47.5,48.5 Z"/></g>
<g><path style="opacity:1" fill="#939393" d="M 53.5,48.5 C 55.1667,48.5 56.8333,48.5 58.5,48.5C 58.5,51.1667 58.5,53.8333 58.5,56.5C 56.8333,56.5 55.1667,56.5 53.5,56.5C 53.5,53.8333 53.5,51.1667 53.5,48.5 Z"/></g>
<g><path style="opacity:1" fill="#939393" d="M 59.5,48.5 C 61.1667,48.5 62.8333,48.5 64.5,48.5C 64.5,51.1667 64.5,53.8333 64.5,56.5C 62.8333,56.5 61.1667,56.5 59.5,56.5C 59.5,53.8333 59.5,51.1667 59.5,48.5 Z"/></g>
<g><path style="opacity:1" fill="#939393" d="M 65.5,48.5 C 67.1667,48.5 68.8333,48.5 70.5,48.5C 70.5,51.1667 70.5,53.8333 70.5,56.5C 68.8333,56.5 67.1667,56.5 65.5,56.5C 65.5,53.8333 65.5,51.1667 65.5,48.5 Z"/></g>
<g><path style="opacity:1" fill="#a1a1a1" d="M 72.5,60.5 C 73.8333,60.5 75.1667,60.5 76.5,60.5C 76.5772,63.0124 75.5772,65.0124 73.5,66.5C 72.5344,64.604 72.2011,62.604 72.5,60.5 Z"/></g>
<g><path style="opacity:1" fill="#9b9b9b" d="M 78.5,60.5 C 80.337,60.6395 80.6704,61.3061 79.5,62.5C 78.7025,62.0431 78.3691,61.3764 78.5,60.5 Z"/></g>
<g><path style="opacity:1" fill="#8b8b8b" d="M -0.5,60.5 C 1.16667,60.5 2.83333,60.5 4.5,60.5C 4.5,63.1667 4.5,65.8333 4.5,68.5C 2.83333,68.5 1.16667,68.5 -0.5,68.5C -0.5,65.8333 -0.5,63.1667 -0.5,60.5 Z"/></g>
<g><path style="opacity:1" fill="#8b8b8b" d="M 5.5,60.5 C 7.16667,60.5 8.83333,60.5 10.5,60.5C 10.5,63.1667 10.5,65.8333 10.5,68.5C 8.83333,68.5 7.16667,68.5 5.5,68.5C 5.5,65.8333 5.5,63.1667 5.5,60.5 Z"/></g>
<g><path style="opacity:1" fill="#8b8b8b" d="M 11.5,60.5 C 13.1667,60.5 14.8333,60.5 16.5,60.5C 16.5,63.1667 16.5,65.8333 16.5,68.5C 14.8333,68.5 13.1667,68.5 11.5,68.5C 11.5,65.8333 11.5,63.1667 11.5,60.5 Z"/></g>
<g><path style="opacity:1" fill="#8b8b8b" d="M 17.5,60.5 C 19.1667,60.5 20.8333,60.5 22.5,60.5C 22.5,63.1667 22.5,65.8333 22.5,68.5C 20.8333,68.5 19.1667,68.5 17.5,68.5C 17.5,65.8333 17.5,63.1667 17.5,60.5 Z"/></g>
<g><path style="opacity:1" fill="#939393" d="M 23.5,60.5 C 25.1667,60.5 26.8333,60.5 28.5,60.5C 28.5,63.1667 28.5,65.8333 28.5,68.5C 26.8333,68.5 25.1667,68.5 23.5,68.5C 23.5,65.8333 23.5,63.1667 23.5,60.5 Z"/></g>
<g><path style="opacity:1" fill="#939393" d="M 29.5,60.5 C 31.1667,60.5 32.8333,60.5 34.5,60.5C 34.5,63.1667 34.5,65.8333 34.5,68.5C 32.8333,68.5 31.1667,68.5 29.5,68.5C 29.5,65.8333 29.5,63.1667 29.5,60.5 Z"/></g>
<g><path style="opacity:1" fill="#939393" d="M 35.5,60.5 C 37.1667,60.5 38.8333,60.5 40.5,60.5C 40.5,63.1667 40.5,65.8333 40.5,68.5C 38.8333,68.5 37.1667,68.5 35.5,68.5C 35.5,65.8333 35.5,63.1667 35.5,60.5 Z"/></g>
<g><path style="opacity:1" fill="#939393" d="M 41.5,60.5 C 43.1667,60.5 44.8333,60.5 46.5,60.5C 46.5,63.1667 46.5,65.8333 46.5,68.5C 44.8333,68.5 43.1667,68.5 41.5,68.5C 41.5,65.8333 41.5,63.1667 41.5,60.5 Z"/></g>
<g><path style="opacity:1" fill="#939393" d="M 47.5,60.5 C 49.1667,60.5 50.8333,60.5 52.5,60.5C 52.5,63.1667 52.5,65.8333 52.5,68.5C 50.8333,68.5 49.1667,68.5 47.5,68.5C 47.5,65.8333 47.5,63.1667 47.5,60.5 Z"/></g>
<g><path style="opacity:1" fill="#939393" d="M 53.5,60.5 C 55.1667,60.5 56.8333,60.5 58.5,60.5C 58.5,63.1667 58.5,65.8333 58.5,68.5C 56.8333,68.5 55.1667,68.5 53.5,68.5C 53.5,65.8333 53.5,63.1667 53.5,60.5 Z"/></g>
<g><path style="opacity:1" fill="#939393" d="M 59.5,60.5 C 61.1667,60.5 62.8333,60.5 64.5,60.5C 64.5,63.1667 64.5,65.8333 64.5,68.5C 62.8333,68.5 61.1667,68.5 59.5,68.5C 59.5,65.8333 59.5,63.1667 59.5,60.5 Z"/></g>
<g><path style="opacity:1" fill="#939393" d="M 65.5,60.5 C 67.1667,60.5 68.8333,60.5 70.5,60.5C 70.5,63.1667 70.5,65.8333 70.5,68.5C 68.8333,68.5 67.1667,68.5 65.5,68.5C 65.5,65.8333 65.5,63.1667 65.5,60.5 Z"/></g>
<g><path style="opacity:1" fill="#888888" d="M 1.5,72.5 C 4.79731,72.3287 5.13065,72.9954 2.5,74.5C 1.70245,74.0431 1.36912,73.3764 1.5,72.5 Z"/></g>
<g><path style="opacity:1" fill="#949494" d="M 5.5,72.5 C 7.33702,72.6395 7.67036,73.3061 6.5,74.5C 5.70245,74.0431 5.36912,73.3764 5.5,72.5 Z"/></g>
<g><path style="opacity:1" fill="#838383" d="M 11.5,72.5 C 13.288,72.2148 14.9547,72.5481 16.5,73.5C 15.6667,73.8333 14.8333,74.1667 14,74.5C 12.6244,74.3158 11.7911,73.6491 11.5,72.5 Z"/></g>
<g><path style="opacity:1" fill="#838383" d="M 17.5,72.5 C 19.288,72.2148 20.9547,72.5481 22.5,73.5C 21.6667,73.8333 20.8333,74.1667 20,74.5C 18.6244,74.3158 17.7911,73.6491 17.5,72.5 Z"/></g>
<g><path style="opacity:1" fill="#8d8d8d" d="M 23.5,72.5 C 25.288,72.2148 26.9547,72.5481 28.5,73.5C 27.6667,73.8333 26.8333,74.1667 26,74.5C 24.6244,74.3158 23.7911,73.6491 23.5,72.5 Z"/></g>
<g><path style="opacity:1" fill="#8d8d8d" d="M 29.5,72.5 C 31.288,72.2148 32.9547,72.5481 34.5,73.5C 33.6667,73.8333 32.8333,74.1667 32,74.5C 30.6244,74.3158 29.7911,73.6491 29.5,72.5 Z"/></g>
<g><path style="opacity:1" fill="#8d8d8d" d="M 35.5,72.5 C 37.288,72.2148 38.9547,72.5481 40.5,73.5C 39.6667,73.8333 38.8333,74.1667 38,74.5C 36.6244,74.3158 35.7911,73.6491 35.5,72.5 Z"/></g>
<g><path style="opacity:1" fill="#8d8d8d" d="M 41.5,72.5 C 43.288,72.2148 44.9547,72.5481 46.5,73.5C 45.6667,73.8333 44.8333,74.1667 44,74.5C 42.6244,74.3158 41.7911,73.6491 41.5,72.5 Z"/></g>
<g><path style="opacity:1" fill="#949494" d="M 47.5,72.5 C 49.1667,72.5 50.8333,72.5 52.5,72.5C 52.2035,82.209 51.3701,82.5423 50,73.5C 48.5391,74.8825 47.7058,74.5492 47.5,72.5 Z"/></g>
<g><path style="opacity:1" fill="#8c8c8c" d="M 59.5,72.5 C 61.1667,72.5 62.8333,72.5 64.5,72.5C 64.6235,76.0399 62.9568,78.0399 59.5,78.5C 59.5,76.5 59.5,74.5 59.5,72.5 Z"/></g>
<g><path style="opacity:1" fill="#898989" d="M 65.5,72.5 C 68.7973,72.3287 69.1306,72.9954 66.5,74.5C 65.7025,74.0431 65.3691,73.3764 65.5,72.5 Z"/></g>
<g><path style="opacity:1" fill="#939393" d="M 53.5,72.5 C 55.1667,72.5 56.8333,72.5 58.5,72.5C 58.5,75.1667 58.5,77.8333 58.5,80.5C 56.8333,80.5 55.1667,80.5 53.5,80.5C 53.5,77.8333 53.5,75.1667 53.5,72.5 Z"/></g>
<g><path style="opacity:1" fill="#898989" d="M 53.5,84.5 C 56.7973,84.3287 57.1306,84.9954 54.5,86.5C 53.7025,86.0431 53.3691,85.3764 53.5,84.5 Z"/></g>
<g><path style="opacity:1" fill="#9e9e9e" d="M 50.5,84.5 C 51.5862,84.62 52.2528,85.2867 52.5,86.5C 52.1667,87.1667 51.8333,87.8333 51.5,88.5C 50.5713,87.3112 50.238,85.9778 50.5,84.5 Z"/></g>
</svg>
